<?xml version="1.0" standalone="no"?>
<!DOCTYPE svg PUBLIC "-//W3C//DTD SVG 20010904//EN"
 "http://www.w3.org/TR/2001/REC-SVG-20010904/DTD/svg10.dtd">
<svg version="1.0" xmlns="http://www.w3.org/2000/svg"
 width="1293.000000pt" height="1293.000000pt" viewBox="0 0 1293.000000 1293.000000"
 preserveAspectRatio="xMidYMid meet">
<metadata>
Created by potrace 1.11, written by Peter Selinger 2001-2013
</metadata>
<g transform="translate(0.000000,1293.000000) scale(0.100000,-0.100000)"
fill="#000000" stroke="none">
<path d="M7050 11718 c-19 -5 -48 -15 -65 -22 -16 -8 -50 -23 -75 -34 -25 -11
-66 -29 -92 -41 -26 -11 -49 -21 -52 -21 -3 0 -29 -11 -58 -24 -29 -13 -163
-72 -298 -130 -576 -250 -689 -301 -681 -309 6 -6 202 -82 391 -151 19 -7 289
-109 600 -226 311 -117 608 -228 660 -247 52 -19 104 -39 115 -44 38 -17 420
-158 422 -155 2 2 -38 97 -88 212 -50 115 -111 256 -136 314 -25 58 -58 133
-74 168 -16 35 -29 65 -29 67 0 2 -11 28 -24 57 -13 29 -63 143 -110 253 -49
112 -102 217 -120 240 -63 76 -189 117 -286 93z"/>
<path d="M5088 10795 c-1 -2 -44 -6 -93 -10 -50 -4 -99 -9 -110 -11 -11 -2
-47 -6 -80 -9 -33 -3 -67 -8 -75 -10 -8 -2 -35 -7 -60 -10 -25 -4 -63 -10 -85
-15 -22 -5 -56 -12 -75 -15 -49 -8 -225 -51 -285 -69 -27 -8 -81 -24 -120 -35
-59 -17 -256 -86 -305 -108 -8 -3 -17 -7 -20 -8 -108 -37 -439 -203 -595 -300
-101 -62 -287 -188 -343 -232 -13 -10 -49 -38 -80 -62 -159 -125 -351 -305
-497 -466 -49 -55 -92 -102 -95 -105 -12 -12 -121 -151 -177 -225 -73 -97
-194 -281 -255 -390 -72 -128 -122 -220 -123 -225 -1 -3 -20 -45 -44 -95 -111
-233 -246 -623 -285 -825 -3 -14 -16 -81 -30 -150 -13 -69 -27 -145 -30 -170
-3 -25 -8 -58 -11 -75 -35 -214 -41 -809 -11 -995 3 -14 7 -52 11 -85 3 -33 8
-69 10 -80 3 -11 7 -36 9 -55 4 -29 20 -115 40 -218 3 -12 12 -50 21 -85 9
-34 18 -71 21 -82 10 -54 78 -271 120 -383 212 -574 529 -1068 964 -1502 172
-173 271 -259 466 -406 260 -195 625 -401 914 -514 74 -29 144 -56 155 -61 60
-25 344 -110 415 -124 8 -2 16 -4 18 -5 2 -3 6 -4 52 -13 19 -4 46 -9 60 -12
110 -24 161 -33 193 -34 10 -1 28 -11 41 -24 155 -153 479 -407 667 -522 309
-188 630 -337 932 -434 139 -44 401 -113 482 -126 17 -3 39 -7 50 -9 11 -2 56
-9 100 -16 44 -6 91 -13 105 -16 14 -2 50 -6 80 -9 30 -3 96 -10 145 -15 90
-8 639 -6 705 4 19 3 58 8 85 11 109 12 145 17 275 41 183 34 168 30 320 70
508 132 1014 376 1433 692 236 177 496 421 667 623 47 56 90 106 95 112 38 42
199 269 267 377 78 123 137 228 207 370 29 58 56 112 61 121 16 31 100 239
135 334 68 188 159 533 180 682 3 21 12 81 20 133 44 293 53 732 20 1010 -2
19 -7 60 -10 90 -8 63 -13 104 -20 140 -3 14 -7 39 -10 56 -2 17 -12 66 -20
110 -9 43 -18 90 -21 104 -3 14 -10 43 -16 65 -5 22 -12 47 -13 56 -14 73
-129 423 -168 510 -8 19 -34 78 -57 132 -155 363 -412 763 -693 1078 -152 171
-340 351 -507 485 -271 218 -594 416 -900 550 -69 31 -134 60 -145 64 -118 53
-455 162 -565 184 -14 2 -54 11 -90 20 -36 8 -78 17 -95 20 -169 31 -157 26
-246 107 -373 339 -802 611 -1249 792 -176 72 -429 154 -580 188 -25 6 -52 12
-60 14 -77 18 -171 36 -250 49 -146 23 -181 27 -239 32 -30 2 -70 7 -90 10
-39 6 -607 15 -613 9z m472 -840 c145 -7 174 -11 345 -40 162 -28 151 -25 280
-59 185 -47 367 -112 568 -204 42 -19 77 -38 77 -42 0 -6 -50 -18 -190 -46
-57 -11 -223 -58 -340 -96 -321 -104 -656 -263 -950 -451 -90 -57 -269 -183
-280 -196 -3 -3 -23 -19 -45 -36 -168 -123 -417 -365 -635 -615 -90 -103 -367
-501 -403 -580 -4 -8 -19 -35 -33 -60 -128 -226 -249 -507 -332 -775 -57 -181
-94 -331 -127 -512 -11 -60 -26 -160 -30 -193 -2 -19 -6 -53 -9 -75 -27 -215
-28 -754 -1 -928 2 -12 6 -49 10 -82 4 -32 8 -67 10 -76 2 -9 6 -34 10 -55 3
-22 8 -52 11 -69 6 -33 34 -171 40 -195 2 -8 12 -51 23 -95 53 -220 150 -492
260 -729 23 -49 41 -91 41 -93 0 -2 -26 11 -57 28 -32 18 -77 42 -100 55 -68
37 -291 181 -303 194 -3 3 -21 17 -40 30 -69 48 -267 219 -354 306 -394 391
-673 854 -849 1409 -14 44 -43 153 -52 195 -2 8 -9 38 -15 65 -25 110 -56 328
-65 460 -7 103 -8 408 -1 475 3 25 7 77 11 115 3 39 8 77 10 85 2 8 6 36 10
63 4 38 45 243 60 307 88 370 296 813 533 1139 82 114 84 116 182 230 144 168
411 414 565 521 272 187 477 299 740 403 174 69 415 141 545 163 14 3 48 9 75
14 75 14 105 19 165 26 30 3 63 8 73 10 10 1 73 6 140 10 67 4 123 7 124 8 3
2 195 -3 303 -9z m2323 -1165 c359 -404 643 -1000 743 -1560 2 -14 6 -34 9
-45 2 -11 7 -42 10 -70 4 -27 8 -61 11 -75 22 -138 26 -602 5 -770 -67 -556
-249 -1052 -552 -1499 -269 -399 -645 -755 -1051 -996 -51 -31 -100 -60 -108
-65 -44 -27 -275 -136 -360 -170 -165 -66 -463 -155 -582 -175 -18 -3 -55 -10
-83 -15 -52 -10 -95 -16 -180 -26 -27 -3 -61 -8 -75 -11 -40 -8 -512 -12 -547
-5 -78 17 -362 422 -516 734 -31 64 -57 119 -57 122 0 3 -14 35 -30 71 -28 61
-126 340 -134 382 -2 10 -11 45 -19 78 -16 59 -52 240 -61 300 -17 114 -26
196 -32 279 -6 89 -6 411 1 481 9 105 26 238 35 290 5 28 12 64 15 80 5 31 10
60 21 110 14 68 78 287 111 380 171 486 463 936 839 1297 268 256 582 469 934
632 58 27 110 49 115 51 6 1 21 7 35 12 123 51 352 121 480 149 41 8 84 17 95
20 20 4 168 28 235 38 19 3 76 8 125 12 50 3 91 8 93 9 2 2 100 2 219 1 l216
-1 40 -45z m1412 -419 c394 -233 727 -539 1011 -926 137 -187 292 -468 383
-696 92 -230 185 -571 206 -755 3 -28 7 -60 9 -70 20 -104 28 -563 13 -719
-18 -182 -52 -382 -88 -513 -11 -40 -22 -82 -24 -93 -2 -11 -25 -82 -50 -157
-210 -621 -597 -1162 -1125 -1573 -83 -65 -323 -229 -335 -229 -3 0 -23 -11
-46 -25 -53 -34 -258 -136 -339 -170 -36 -15 -78 -33 -95 -40 -34 -15 -145
-56 -160 -59 -5 -1 -48 -14 -95 -28 -76 -24 -190 -55 -230 -63 -107 -22 -238
-45 -290 -50 -36 -4 -74 -9 -85 -11 -117 -22 -585 -22 -725 0 -14 2 -47 7 -75
10 -27 3 -63 9 -80 11 -97 17 -188 36 -245 50 -36 9 -75 18 -87 20 -104 23
-413 136 -570 211 -61 28 -76 40 -50 41 40 2 250 52 395 94 927 270 1733 858
2283 1664 129 188 281 464 364 660 26 61 53 124 60 140 50 114 159 468 190
615 20 97 54 283 59 325 4 28 9 61 11 75 33 207 38 758 10 955 -3 17 -7 53
-10 80 -6 47 -21 153 -30 203 -2 12 -9 50 -15 85 -51 282 -176 667 -311 955
l-48 103 52 -28 c29 -15 102 -56 162 -92z"/>
<path d="M9665 10639 c-29 -4 -133 -43 -250 -94 -110 -48 -247 -107 -305 -132
-58 -24 -123 -53 -145 -63 -51 -23 -65 -29 -345 -150 -290 -126 -323 -140
-318 -145 1 -2 21 -10 43 -18 22 -7 185 -68 362 -135 176 -67 324 -122 327
-122 3 0 25 -9 49 -19 23 -10 56 -24 72 -29 17 -6 59 -21 95 -35 900 -339
1244 -466 1247 -463 3 2 -4 24 -15 48 -11 23 -48 108 -82 188 -34 80 -71 165
-82 190 -11 25 -26 60 -34 78 -8 17 -20 47 -28 65 -8 17 -31 70 -51 117 -20
47 -45 103 -55 125 -9 22 -37 85 -60 140 -23 55 -55 127 -70 160 -15 33 -35
82 -46 109 -22 56 -93 134 -144 158 -54 25 -109 35 -165 27z"/>
</g>
</svg>
